<?xml version="1.0" standalone="no"?><!DOCTYPE svg PUBLIC "-//W3C//DTD SVG 1.1//EN" "http://www.w3.org/Graphics/SVG/1.1/DTD/svg11.dtd"><svg t="1522588364362" class="icon" style="" viewBox="0 0 2196 1024" version="1.1" xmlns="http://www.w3.org/2000/svg" p-id="1855" xmlns:xlink="http://www.w3.org/1999/xlink" width="428.90625" height="200"><defs><style type="text/css"></style></defs><path d="M1085.447782 571.516518c0 17.396224 2.046669 24.559309 21.490381 24.559309-1.023386 5.116518-2.046669 10.233037-5.116723 14.326272-5.116723 7.163187-14.326886 13.302989-31.723827 13.302989-4.09344 0-8.186778-1.023283-12.280218-2.046566l-2.046698 0-1.023349 0-3.070054-2.046566-1.023349 0c0-1.023283 0-1.023283-1.023386-1.023283-6.140109-3.069952-10.233446-6.139802-12.280218-11.25632l-3.070054-6.139802c-9.210163 10.233037-21.490381 17.396224-36.84055 22.512742-7.163494 2.046566-15.350272 3.069952-22.513664 3.069952-41.957274 0-71.634432-28.652544-71.634432-70.608077 0-44.002202 29.677158-70.608077 77.774541-70.608077 7.163494 0 9.210163 0 16.373555 1.023283 13.303501 3.069952 26.607104 9.209754 33.770496 20.466074 1.023386-2.046566 1.023386-5.116518 1.023386-10.233037 0-25.582694-11.256832-39.908966-34.793882-44.002202-7.163494-1.023283-13.303501-1.023283-20.466995-1.023283-19.44361 0-36.84055 3.069952-56.28416 7.163187 7.163494-12.279706 10.233446-20.466074 17.396941-24.559309 5.116723-5.116518 22.513664-8.18647 51.167437-8.18647l8.186793 0c64.47104 1.023283 88.007987 25.582694 88.007987 78.794547L1085.447739 571.516512zM997.439795 598.122496c21.490381 0 35.817267-16.372941 35.817267-44.002202s-11.256832-40.93225-34.793882-40.93225l-1.023349 0c-21.490381 1.023283-36.84055 14.326272-36.84055 41.955533C960.599245 580.726272 976.9728 598.122496 997.439795 598.122496L997.439795 598.122496zM531.815936 425.183744c61.400986 0 99.264819 36.839014 99.264819 102.330573 0 62.421709-37.863936 99.260723-99.264819 99.260723s-98.241536-36.839014-98.241536-99.260723C433.5744 462.022758 470.41495 425.183744 531.815936 425.183744L531.815936 425.183744zM531.815936 598.122496c25.583718 0 37.863936-23.536026 37.863936-70.608077 0-48.095437-12.280218-71.631462-37.863936-72.654746-25.583718 0-37.863936 24.559309-37.863936 72.654746C493.952 574.58647 506.232218 598.122496 531.815936 598.122496L531.815936 598.122496zM783.559782 427.23031c52.190822 0 86.984704 35.815731 86.984704 97.214054 0 65.491558-34.793882 102.330573-86.984704 102.330573-7.163494 0-10.233446-1.023283-15.350272-2.046566-18.420326-3.069952-32.747213-11.25632-42.980659-23.536026-2.046669 5.116518-4.09344 8.18647-7.163494 11.25632-6.140109 7.163187-16.373555 11.25632-29.677158 11.25632-4.09344 0-7.163494 0-10.233446-1.023283-19.44361-3.069952-23.53705-16.372941-26.607104-23.536026l0-1.023306 0-2.046612c21.490381 1.023283 20.466995-12.279706 20.466995-24.559309l0-159.635767c0-19.44279-3.070054-26.605978-22.513664-27.629261 0-5.116518 2.046669-10.233037 6.140109-15.349555l7.163494-7.163187c5.116723-3.069952 12.280218-7.163187 23.53705-7.163187 7.163494 0 14.326886 1.023283 21.490381 4.093235 3.070054 1.023283 6.140109 3.069952 10.233446 6.139802 0 0 0 0 1.023386 1.023283 0 0 0 0 1.023386 1.023283l1.023386 1.023283 1.023386 1.023283c0 0 0 1.023283 1.023386 2.046566l0 1.023306 1.023386 1.023283c1.023386 2.046566 3.070054 6.139802 4.09344 11.25632l0 1.023306 0 3.069919 0 17.396205 0 44.002167c9.210163-11.25632 22.513664-18.419507 39.910605-21.489459C771.279667 427.23031 776.39639 427.23031 783.559782 427.23031L783.559782 427.23031zM769.232896 597.099213c27.630387 0 40.93399-22.512742 40.93399-68.56151 0-48.095437-14.326886-73.678029-41.957274-74.701312l-1.023349 0c-23.53705 0-40.93399 21.489459-40.93399 61.398323l0 19.442818c0 39.908966 17.396941 61.398323 41.957274 62.421709L769.232923 597.09924zM1225.646694 425.183744c61.400986 0 99.264819 36.839014 99.264819 102.330573 0 62.421709-37.863936 99.260723-99.264819 99.260723s-97.21815-36.839014-97.21815-99.260723C1128.428442 462.022758 1164.245709 425.183744 1225.646694 425.183744L1225.646694 425.183744zM1225.646694 598.122496c25.583718 0 38.887219-23.536026 38.887219-70.608077 0-48.095437-13.303501-71.631462-38.887219-72.654746-25.583718 0-37.863936 24.559309-37.863936 72.654746C1187.782758 574.58647 1200.062874 598.122496 1225.646694 598.122496L1225.646694 598.122496zM1541.861581 451.789722c-27.630387 0-46.050714 24.559309-46.050714 69.584794 0 48.095437 21.490381 75.724698 53.214106 75.724698 19.44361 0 32.747213-9.209754 44.004045-9.209754 7.163494 0 14.326886 3.069952 20.466995 10.233037-19.44361 19.44279-44.004045 28.652544-74.704486 28.652544-61.400986 0-103.358259-37.862298-103.358259-99.260723s44.004045-102.330573 105.404928-102.330573c20.466995 0 38.887219 5.116518 52.190822 10.233037 7.163494 3.069952 14.326886 6.139802 21.490381 10.233037 0 23.536026-11.256832 31.722496-24.560333 30.699213-7.163494-1.023283-12.280218-4.093235-17.396941-10.233037C1565.398528 456.90624 1555.165082 451.789722 1541.861581 451.789722L1541.861581 451.789722zM1740.391219 425.183744c61.400986 0 98.241536 36.839014 98.241536 102.330573 0 62.421709-36.84055 99.260723-98.241536 99.260723s-98.241536-36.839014-98.241536-99.260723C1642.149786 462.022758 1678.990336 425.183744 1740.391219 425.183744L1740.391219 425.183744zM1740.391219 598.122496c25.583718 0 37.863936-23.536026 37.863936-70.608077 0-48.095437-12.280218-72.654746-37.863936-72.654746s-37.863936 24.559309-37.863936 72.654746C1702.527386 574.58647 1714.807501 598.122496 1740.391219 598.122496L1740.391219 598.122496zM1381.195674 571.516518c16.373555 0 27.630387 12.279706 27.630387 27.629261s-11.256832 27.629261-27.630387 27.629261c-15.350272 0-27.630387-12.279706-27.630387-27.629261S1365.845504 571.516518 1381.195674 571.516518L1381.195674 571.516518zM239.138099 376.065024c-11.256832 29.67593-19.44361 35.815731-49.120768 35.815731l-15.350237 0c-20.466995 0-25.583718 0-25.583718 15.349555l0 141.216255c0 19.44279 3.070054 26.605978 22.513664 27.629261-2.046669 5.116518-5.116723 10.233037-8.186778 14.326272-7.163494 7.163187-17.396941 13.302989-36.84055 13.302989-3.070054 0-8.186778-1.023283-13.303501-2.046566-2.046669 0-4.09344-1.023283-7.163494-2.046566-13.303501-6.139802-20.466995-17.396224-20.466995-32.745779l0-1.023306 0-78.794577 0-80.84119c0-13.302989-3.070054-16.372941-22.513664-16.372941-24.560333 0-46.050714 1.023283-62.424269 6.139802 9.210163-28.652544 21.490381-35.815731 50.144154-35.815731 17.396941 0 50.144154 2.046566 102.334874 2.046566C195.134054 382.204826 223.787827 381.181542 239.138099 376.065024L239.138099 376.065024zM2174.291354 570.493235c0 17.396224 1.023386 25.582694 20.466995 25.582694-1.023386 5.116518-2.046669 10.233037-5.116723 14.326272-5.116723 7.163187-13.303501 13.302989-30.700442 13.302989-8.186778 0-15.350272-2.046566-20.466995-5.116518l-1.023349 0c-1.023386 0-1.023386 0-2.046669-1.023283l-1.023349 0-2.046669-2.046566 0-1.023306-1.023386-1.023283-1.023386-1.023283c-1.023386-1.023283-1.023386-1.023283-1.023386-2.046566-1.023386-1.023283-3.070054-2.046566-4.09344-5.116518l-1.023349 0 0-2.046612c-1.023386 0-1.023386 0-1.023386-1.023283l0-2.046612 0-1.023306 0-1.023306c-1.023386-1.023283-1.023386-2.046566-1.023386-3.069952l0-1.023306c-1.023386-2.046566-1.023386-4.093235-1.023386-7.163187l0-2.046612 0-94.14417c0-24.559309-10.233446-36.839014-29.677158-36.839014-25.583718 0-34.793882 13.302989-34.793882 45.025485l0 123.82005-54.237505 0 0-132.0065c0-24.559309-10.233446-36.839014-29.677158-36.839014-22.513664 0-33.770496 15.349555-33.770496 45.025485l0 123.82005-55.260854 0 0-138.146337c0-19.44279-4.09344-26.605978-23.53705-27.629261 1.023386-6.139802 4.09344-11.25632 7.163494-14.326272l2.046669-3.069952c1.023386-1.023283 3.070054-3.069952 7.163494-5.116518 5.116723-4.093235 12.280218-6.139802 21.490381-6.139802 16.373555 0 25.583718 5.116518 30.700442 10.233037 3.070054 3.069952 5.116723 6.139802 6.140109 9.209754 15.350272-15.349555 33.770496-22.512742 56.28416-22.512742 25.583718 0 45.027328 9.209754 57.307546 26.605978 14.326886-17.396224 33.770496-26.605978 59.354214-26.605978 44.004045 0 66.517709 23.536026 66.517709 71.631462L2174.291165 570.493206zM391.617126 571.516518c0 17.396224 1.023386 24.559309 20.466995 24.559309-1.023386 5.116518-2.046669 10.233037-5.116723 14.326272-5.116723 7.163187-13.303501 13.302989-30.700442 13.302989-5.116723 0-9.210163-1.023283-12.280218-2.046566l-3.070047 0-4.09344-2.046566-1.023349 0 0-1.023306c-5.116723-3.069952-9.210163-6.139802-12.280218-11.25632l-3.070054-6.139802c-9.210163 11.25632-21.490381 18.419507-36.84055 22.512742-8.186778 2.046566-15.350272 3.069952-22.513664 3.069952-41.957274 0-71.634432-28.652544-71.634432-70.608077 0-44.002202 30.700442-70.608077 76.751155-70.608077 7.163494 0 10.233446 0 17.396941 1.023283 14.326886 3.069952 25.583718 10.233037 33.770496 20.466074 1.023386-2.046566 1.023386-5.116518 1.023386-10.233037 0-25.582694-11.256832-39.908966-34.793882-44.002202-7.163494-1.023283-13.303501-1.023283-20.466995-1.023283-19.44361 0-36.84055 3.069952-56.28416 7.163187 7.163494-12.279706 9.210163-20.466074 16.373555-24.559309 6.140109-5.116518 23.53705-8.18647 51.167437-8.18647l9.210142 0c64.47104 1.023283 88.007987 25.582694 88.007987 78.794547L391.617047 571.516512zM303.609037 598.122496c23.53705 0 34.793882-14.326272 34.793882-44.002202 0-27.629261-11.256832-40.93225-34.793882-40.93225-23.53705 1.023283-36.84055 14.326272-36.84055 41.955533C266.768486 580.726272 282.118758 598.122496 303.609037 598.122496z" p-id="1856"></path></svg>