<?xml version="1.0" standalone="no"?><!DOCTYPE svg PUBLIC "-//W3C//DTD SVG 1.1//EN" "http://www.w3.org/Graphics/SVG/1.1/DTD/svg11.dtd"><svg t="1522584015020" class="icon" style="" viewBox="0 0 1024 1024" version="1.1" xmlns="http://www.w3.org/2000/svg" p-id="1855" xmlns:xlink="http://www.w3.org/1999/xlink" width="200" height="200"><defs><style type="text/css"></style></defs><path d="M126.003 221.119a81.36 80.25 0 1 0 162.72 0 81.36 80.25 0 1 0-162.72 0Z" p-id="1856"></path><path d="M237.101 419.312c-13.921-9.427-64.945-53.939-87.169-73.464-5.534-4.861-13.921-3.514-17.786 2.858L94.207 411.26c-3.501 5.773-1.867 13.399 3.665 17.07 30.233 20.061 118.677 80.266 122.396 100.413 4.489 24.319 4.489 34.046 2.244 48.637-2.161 14.048-70.888 113.743-162.123 205.781-5.456 5.504-4.602 14.852 1.733 19.22l99.559 68.647c6.054 4.174 14.256 1.807 17.366-5.02 19.923-43.735 84.098-186.358 97.33-237.561 15.71-60.796 22.443-87.545 15.71-124.023-6.731-36.475-37.031-72.953-54.986-85.112z" p-id="1857"></path><path d="M965.407 465.517S962.04 357.3 949.695 307.448c-5.483-22.145-6.732-128.768-250.962-131.314-0.275-0.003-0.546 0.003-0.821 0.02-7.459 0.442-114.731 7.228-209.46 37.268-9.837 3.119-18.585-7.347-14.282-17.061l9.684-21.86c3.033-6.846-0.459-14.9-7.4-17.07l-92.308-28.851c-6.201-1.938-12.754 1.615-14.766 8.015-11.834 37.63-52.864 158.14-111.698 223.271-5.175 5.729-3.983 14.951 2.462 19.059l54.747 34.893c4.974 3.17 11.423 2.133 15.244-2.451l54.509-65.388a11.99 11.99 0 0 1 4.09-3.174l18.316-8.629c10.382-4.891 20.823 6.696 15.442 17.146-14.874 28.883-38.785 71.384-64.2 100.751-4.266 4.93-4.091 12.458 0.437 17.13l30.098 31.057c4.785 4.938 12.552 4.773 17.14-0.363l55.403-62.031c2.257-2.527 5.423-3.962 8.739-3.962h25.868c6.448 0 11.729 5.33 11.922 12.033l1.529 53.009c0.202 6.993-5.195 12.776-11.922 12.776H362.371c-6.587 0-11.927 5.554-11.927 12.404v35.987c0 6.851 5.34 12.404 11.927 12.404h135.497c6.587 0 11.927 5.554 11.927 12.404v125.963c0 6.851-5.34 12.404-11.927 12.404h-17.25s-40.4 2.433-40.4-41.34v-60.55c0-6.851-5.34-12.404-11.927-12.404h-90.609c-6.587 0-11.927 5.554-11.927 12.404v72.709s4.489 115.512 104.364 115.512c82.041 0 89.789-1.943 91.086-2.227 0.935-0.206 0.801-0.191 0.935-0.206 8.28-0.923 127.707-15.091 182.865-64.421 6.572-5.878 16.805-2.598 19.176 6.073l8.545 31.246c1.983 7.25 9.674 11.001 16.301 7.949l66.882-30.798c5.8-2.671 8.575-9.596 6.316-15.76L769.63 597.948c-2.236-6.101-8.637-9.356-14.64-7.443l-54.514 17.373c-6.19 1.973-9.737 8.721-7.991 15.204l10.127 37.62c1.451 5.391-0.746 11.125-5.368 13.993-9.249 5.739-25.012 15.294-37.829 21.922-7.914 4.092-17.2-1.936-17.2-11.128v-100.57c0-6.851 5.34-12.404 11.927-12.404H785.15c6.587 0 11.927-5.554 11.927-12.404v-35.987c0-6.851-5.34-12.404-11.927-12.404H651.897c-6.587 0-11.927-5.554-11.927-12.404v-53.009c0-6.851 5.34-12.404 11.927-12.404H785.15c6.587 0 11.927-5.554 11.927-12.404v-35.987c0-6.851-5.34-12.404-11.927-12.404H541.849c-9.629 0-15.284-11.248-9.798-19.478 7.284-10.928 15.938-24.347 21.498-34.429 3.831-6.947 0.442-15.788-6.939-18.073-11.135-3.447-11.452-19.731-0.454-23.628 57.611-20.413 173.683-55.179 232.966-28.416 0 0 53.866 24.319 53.866 80.251V730.21c0 0.216 0.005 0.431 0.016 0.647 0.294 5.544 3.4 93.973-97.747 94.565a11.544 11.544 0 0 1-2.024-0.168c-6.986-1.193-48.786-8.396-70.471-13.537-6.447-1.528-12.858 2.669-14.303 9.379l-10.524 48.868c-1.416 6.577 2.468 13.122 8.757 14.749 16.652 4.308 52.077 11.234 107.743 11.234 80.798 0 191.895-20.67 206.484-201.841 10.745-133.44 4.488-228.589 4.488-228.589z" p-id="1858"></path></svg>